<svg xmlns="http://www.w3.org/2000/svg" xmlns:xlink="http://www.w3.org/1999/xlink" width="88" height="25" viewBox="0 0 88 25">
  <defs>
    <linearGradient id="linear-gradient" x1="0.5" y1="-0.009" x2="0.5" y2="1.011" gradientUnits="objectBoundingBox">
      <stop offset="0" stop-color="#e8e8e8"/>
      <stop offset="1" stop-color="#9c9c9c"/>
    </linearGradient>
    <linearGradient id="linear-gradient-2" x1="0.926" y1="4.536" x2="1.946" y2="5.683" gradientUnits="objectBoundingBox">
      <stop offset="0.083" stop-color="#fff"/>
      <stop offset="0.611" stop-color="#a8a8a8"/>
      <stop offset="1" stop-color="#fff"/>
    </linearGradient>
  </defs>
  <g id="Group_24" data-name="Group 24" transform="translate(-3040 -4956)">
    <rect id="Rectangle_5" data-name="Rectangle 5" width="88" height="25" rx="4" transform="translate(3040 4956)" fill="#050505"/>
    <g id="Group_23" data-name="Group 23" transform="translate(32)">
      <path id="Path_2" data-name="Path 2" d="M14.211.783H2.9A1.59,1.59,0,0,0,1.31,2.372V24.194A1.589,1.589,0,0,0,2.9,25.783H14.222a1.57,1.57,0,0,0,1.567-1.589V2.371A1.581,1.581,0,0,0,14.211.783Zm1.01,23.411a1.007,1.007,0,0,1-.288.722.993.993,0,0,1-.71.3H2.9a1.02,1.02,0,0,1-1.02-1.021V2.372A1.021,1.021,0,0,1,2.9,1.351H14.211a1.012,1.012,0,0,1,1.01,1.02Z" transform="translate(3006.69 4955.217)" fill="url(#linear-gradient)"/>
      <path id="Path_3" data-name="Path 3" d="M18.546,28.61a.44.44,0,0,0,.122-.321V6.467a.444.444,0,0,0-.441-.452H6.914a.453.453,0,0,0-.452.452V28.289a.451.451,0,0,0,.452.452H18.237a.425.425,0,0,0,.31-.132" transform="translate(3002.657 4951.122)" fill="url(#linear-gradient-2)"/>
      <g id="Group_22" data-name="Group 22" transform="translate(3008.95 4956.95)">
        <path id="Path_5" data-name="Path 5" d="M10.327,30.282h.364a.619.619,0,0,1-.04-.207V28.893c0-.091.055-.086.1-.035l1.206,1.424h.369l-1.252-1.474c-.03-.035-.026-.091.02-.091h.132a.621.621,0,0,0,0-1.241h-.893a.636.636,0,0,1,.04.207v2.392a.624.624,0,0,1-.041.206Zm.322-2.529h.57a.339.339,0,1,1,0,.678h-.57v-.677Zm7.784-9.54a3.008,3.008,0,0,1-1.653,1.653l.413.855s.059-.014.158-.05a5.67,5.67,0,0,1,1.31,3.528,1.688,1.688,0,0,1-.656,1.382h2.209a1.126,1.126,0,0,1-.4-.7,9.059,9.059,0,0,0-.57-2.494A20.1,20.1,0,0,0,18.123,20.3,4.046,4.046,0,0,0,19.83,18.24a2.748,2.748,0,0,0-2.024-3.734,4.079,4.079,0,0,1,.428,1.155,2.455,2.455,0,0,1,.2,2.551Zm2.008-8c-.1-.071-.412-.347-.53-.44-.091-.07-.238-.57.213-.58a.939.939,0,0,1,.5.212l.126-.318a1.1,1.1,0,0,1-.222-.071,1.113,1.113,0,0,0-.409-.106.592.592,0,0,0-.611.555.735.735,0,0,0,.333.647,3.469,3.469,0,0,1,.641.585c.157.217.237.671-.323.737a1.06,1.06,0,0,1-.52-.172l.045.394a.591.591,0,0,1,.232.01,1.929,1.929,0,0,0,.313.03c.112,0,.682-.1.682-.651A1.031,1.031,0,0,0,20.442,10.215ZM18.316,30.378a1.34,1.34,0,0,0,.809-.167l-.012-.344a1.062,1.062,0,0,1-.8.24,1.181,1.181,0,0,1-1.128-1.188,1.164,1.164,0,0,1,1.128-1.169,1.209,1.209,0,0,1,.76.247l-.038-.339a1.27,1.27,0,0,0-.722-.179,1.434,1.434,0,0,0-1.4,1.44A1.451,1.451,0,0,0,18.316,30.378Zm-4.7-.06a1.4,1.4,0,1,0-1.4-1.4,1.4,1.4,0,0,0,1.4,1.4Zm0-2.527a1.127,1.127,0,1,1-1.128,1.127,1.128,1.128,0,0,1,1.128-1.127Zm7.095,2.531.207-.333a1.656,1.656,0,0,1-.626.076c-.186,0-.272-.1-.272-.176V28.97c0-.112.071-.146.157-.146h.494V28.54H20.18c-.086,0-.157-.034-.157-.146v-.445c0-.08.086-.176.272-.176a1.035,1.035,0,0,1,.495.076l-.076-.333H19.7a.607.607,0,0,1,.04.207v2.393a.615.615,0,0,1-.041.207h1.015Zm-4.872-.207a.615.615,0,0,1-.04.207h.363a.642.642,0,0,1-.041-.207h0V28.843l.767-1.327h-.328l-.57,1-.57-1H15.1l.747,1.327v1.272Zm.054-9.037a5.164,5.164,0,0,0-.395-.833,6.728,6.728,0,0,1-1.1.093v-.222a9.371,9.371,0,0,1-1.03.172v4.432a1.349,1.349,0,0,1-.344.888h1.716a1.349,1.349,0,0,1-.343-.888V21.206a10.174,10.174,0,0,0,1.495-.128Zm.211-9.859V9.052a.6.6,0,0,1,.041-.207h-.364a.648.648,0,0,1,.041.206v2.393a.646.646,0,0,1-.041.207H16.8l.207-.333a1.661,1.661,0,0,1-.626.076C16.193,11.395,16.107,11.3,16.107,11.218ZM13.8,8.85a1.4,1.4,0,1,0,1.4,1.4,1.4,1.4,0,0,0-1.4-1.4Zm0,2.527a1.128,1.128,0,1,1,1.1-1.128A1.128,1.128,0,0,1,13.8,11.377Zm4.233-.159V9.052a.615.615,0,0,1,.041-.207h-.364a.625.625,0,0,1,.041.206v2.393a.628.628,0,0,1-.041.207h1.015l.207-.333a1.661,1.661,0,0,1-.626.076c-.187,0-.272-.1-.272-.176Zm-6.763-1.131H11.4a.622.622,0,0,0,0-1.243H10.51a.611.611,0,0,1,.04.207v2.393a.622.622,0,0,1-.04.207h.364a.628.628,0,0,1-.041-.207V10.264c0-.091.056-.086.1-.035l1.207,1.424H12.5l-1.252-1.474C11.221,10.143,11.227,10.087,11.272,10.087Zm-.44-.286V9.123h.57a.339.339,0,0,1,0,.679h-.57Z" transform="translate(-9.319 -8.044)" stroke="#000" stroke-miterlimit="22.926" stroke-width="0.216"/>
        <path id="Path_6" data-name="Path 6" d="M13.472,40.519h1.716a1.35,1.35,0,0,1-.343-.888V36.116a8.236,8.236,0,0,0,2.9-.518A5.889,5.889,0,0,1,19.085,39.2a1.693,1.693,0,0,1-.646,1.313H20.68a1.3,1.3,0,0,1-.484-1.131,9.316,9.316,0,0,0-1.677-4.16,3.689,3.689,0,0,0,1.918-3.149,2.874,2.874,0,0,0-3.089-2.766H13.573a.961.961,0,0,1,.242.747V39.63A1.35,1.35,0,0,1,13.472,40.519Zm1.373-10.54h2.221a1.808,1.808,0,0,1,2.019,2c-.1,2.847-2.928,3.272-4.24,3.272V29.978Z" transform="translate(-11.781 -24.066)" stroke="#000" stroke-miterlimit="22.926" stroke-width="0.216"/>
        <path id="Path_7" data-name="Path 7" d="M17.636,5.159H6.323a.639.639,0,0,0-.638.638V27.619a.638.638,0,0,0,.638.638H17.646a.611.611,0,0,0,.441-.186.626.626,0,0,0,.176-.452V5.8A.63.63,0,0,0,17.636,5.159Zm.245,22.508a.235.235,0,0,1-.235.235H6.323a.235.235,0,0,1-.234-.235V24.1H17.881v3.567Zm0-4.018H6.089V9.567l11.792-.011V23.649Zm0-14.543H6.089V5.75a.235.235,0,0,1,.234-.235H17.646a.235.235,0,0,1,.235.235V9.106Z" transform="translate(-5.685 -5.159)" stroke="#000" stroke-miterlimit="22.926" stroke-width="0.216"/>
        <path id="Path_8" data-name="Path 8" d="M25.747,34.281H23.233a.958.958,0,0,1,.243.747v3.8a5.064,5.064,0,0,0,1.029-.262V34.947h1.818A1.632,1.632,0,0,0,25.747,34.281Z" transform="translate(-19.422 -27.956)" stroke="#000" stroke-miterlimit="22.926" stroke-width="0.216"/>
      </g>
    </g>
    <text id="ROLLS-ROYCE" transform="translate(3057 4972)" fill="#fff" font-size="9" font-family="Alef-Bold, Alef" font-weight="700" letter-spacing="0.05em"><tspan x="0" y="0">ROLLS-ROYCE</tspan></text>
  </g>
</svg>
